<svg id="Layer_1" data-name="Layer 1" xmlns="http://www.w3.org/2000/svg" viewBox="0 0 160 160"><defs><style>.cls-1{fill:#7dc142;}</style></defs><title>icon-imparting-knowledge</title><path class="cls-1" d="M82.85,34.29A17.15,17.15,0,1,0,65.71,17.15,17.17,17.17,0,0,0,82.85,34.29Zm0-28.57A11.43,11.43,0,1,1,71.43,17.15,11.43,11.43,0,0,1,82.85,5.72Zm0,0"/><path class="cls-1" d="M68.57,128.57a14.29,14.29,0,1,0,14.28-14.29,14.29,14.29,0,0,0-14.28,14.29Zm22.86,0A8.57,8.57,0,1,1,82.85,120a8.57,8.57,0,0,1,8.58,8.57Zm0,0"/><path class="cls-1" d="M40.12,40.82a2.76,2.76,0,0,0,1,1.46L62.86,58.56V77.15H46.23l2.15-12.92,5.07-5.07-4.05-4-5.71,5.72a2.85,2.85,0,0,0-.79,1.55L40.44,77.15H34.29v5.7H40v22.87h5.72V82.85H120v22.87h5.71V82.85h5.72v-5.7H114.28V54.28A14.29,14.29,0,0,0,100,40H72.29L56.64,29.56l-8.24-22A2.87,2.87,0,0,0,45,5.8L33.59,8.66A2.78,2.78,0,0,0,31.81,10a2.81,2.81,0,0,0-.25,2.23ZM43.93,12l7.69,20.48a2.79,2.79,0,0,0,1.09,1.36L69.85,45.23a2.78,2.78,0,0,0,1.58.49H100a8.56,8.56,0,0,1,8.56,8.56V77.15h-5.7v-20H97.14v20H85.71v-20h2.86V51.42H77.15v5.72H80v20H68.57v-20a2.87,2.87,0,0,0-1.15-2.29L45.32,38.28,37.87,13.47Zm0,0"/><path class="cls-1" d="M151.42,0H114.28a8.57,8.57,0,0,0-8.56,8.56V20a8.57,8.57,0,0,0,8.56,8.56v8.56A2.89,2.89,0,0,0,116,39.79a3,3,0,0,0,1.1.21,2.94,2.94,0,0,0,2-.84l10.58-10.59h21.67A8.59,8.59,0,0,0,160,20V8.56A8.59,8.59,0,0,0,151.42,0Zm2.86,20a2.85,2.85,0,0,1-2.86,2.84H128.57a2.91,2.91,0,0,0-2,.84L120,30.25V25.71a2.87,2.87,0,0,0-2.86-2.86h-2.86A2.86,2.86,0,0,1,111.42,20V8.56a2.86,2.86,0,0,1,2.86-2.84h37.14a2.85,2.85,0,0,1,2.86,2.84Zm0,0"/><path class="cls-1" d="M28.57,68.57A8.57,8.57,0,0,0,37.13,60V54.28a8.56,8.56,0,0,0-8.56-8.56V37.13a2.88,2.88,0,0,0-1.76-2.63,2.83,2.83,0,0,0-3.12.63L13.1,45.72H8.56A8.57,8.57,0,0,0,0,54.28V60a8.58,8.58,0,0,0,8.56,8.57ZM5.72,60V54.28a2.86,2.86,0,0,1,2.84-2.86h5.73a2.84,2.84,0,0,0,2-.84L22.85,44v4.54a2.86,2.86,0,0,0,2.86,2.84h2.86a2.87,2.87,0,0,1,2.86,2.86V60a2.86,2.86,0,0,1-2.86,2.86h-20A2.86,2.86,0,0,1,5.72,60Zm0,0"/><path class="cls-1" d="M117.14,11.42h31.44v5.73H117.14Z"/><path class="cls-1" d="M97.14,148.58H68.57A8.57,8.57,0,0,0,60,157.14V160h5.71v-2.86a2.86,2.86,0,0,1,2.86-2.86H97.14a2.86,2.86,0,0,1,2.86,2.86V160h5.72v-2.86a8.57,8.57,0,0,0-8.58-8.56Zm0,0"/><path class="cls-1" d="M120,128.57a14.29,14.29,0,1,0,14.29-14.29A14.3,14.3,0,0,0,120,128.57ZM134.29,120a8.57,8.57,0,1,1-8.58,8.57,8.58,8.58,0,0,1,8.58-8.57Zm0,0"/><path class="cls-1" d="M148.58,148.58H120a8.57,8.57,0,0,0-8.58,8.56V160h5.72v-2.86a2.87,2.87,0,0,1,2.86-2.86h28.58a2.86,2.86,0,0,1,2.84,2.86V160h5.72v-2.86a8.57,8.57,0,0,0-8.56-8.56Zm0,0"/><path class="cls-1" d="M17.15,128.57a14.29,14.29,0,1,0,14.28-14.29,14.29,14.29,0,0,0-14.28,14.29Zm22.85,0A8.58,8.58,0,1,1,31.43,120,8.57,8.57,0,0,1,40,128.57Zm0,0"/><path class="cls-1" d="M45.72,148.58H17.15a8.58,8.58,0,0,0-8.59,8.56V160h5.73v-2.86a2.86,2.86,0,0,1,2.86-2.86H45.72a2.87,2.87,0,0,1,2.86,2.86V160h5.7v-2.86a8.56,8.56,0,0,0-8.56-8.56Zm0,0"/><path class="cls-1" d="M108.56,88.57h5.72v5.71h-5.72Z"/><path class="cls-1" d="M97.14,88.57h5.72v5.71H97.14Z"/><path class="cls-1" d="M85.71,88.57h5.72v5.71H85.71Z"/></svg>